<svg width="513" height="424" viewBox="0 0 513 424" fill="none" xmlns="http://www.w3.org/2000/svg">
<g clip-path="url(#clip0_255_72)">
<path d="M256.491 423.895C397.667 423.895 512.112 417.394 512.112 409.374C512.112 401.354 397.667 394.853 256.491 394.853C115.315 394.853 0.869141 401.354 0.869141 409.374C0.869141 417.394 115.315 423.895 256.491 423.895Z" fill="#CCCCCC"/>
<path d="M226.537 80.0678C228.068 80.34 229.474 80.6273 230.768 80.9398L230.395 76.353C229.166 77.6787 227.877 78.9438 226.537 80.0678Z" fill="#CC9999"/>
<path d="M203.14 72.6836L203.004 78.6716C204.042 78.4952 205.215 78.3591 206.545 78.2835C205.396 76.7512 204.263 74.8913 203.14 72.6785V72.6836Z" fill="#CC9999"/>
<path d="M463.492 112.2C463.527 112.412 463.568 112.624 463.603 112.841C464.092 115.688 464.515 118.693 464.842 121.883C465.547 119.988 466.116 118.037 466.545 116.061C468.046 109.191 468.65 102.074 468.816 94.9774C468.267 94.4784 467.713 94.0046 467.149 93.566C466.444 94.0247 465.739 94.4784 465.044 94.9219C464.892 100.718 464.444 106.51 463.492 112.195V112.2Z" fill="white"/>
<path d="M465.063 157.186C465.038 158.381 465.018 159.581 465.013 160.775C474.628 158.557 480.859 151.234 485.105 143.008C484.883 142.146 484.652 141.289 484.415 140.452C484.138 139.479 483.876 138.496 483.624 137.519C480.048 145.966 474.507 154.611 465.063 157.186Z" fill="white"/>
<path d="M465.874 180.937C465.985 182.111 466.101 183.286 466.232 184.46C472.573 184.788 479.02 183.996 484.954 182.015C485.397 180.66 485.795 179.263 486.142 177.827C479.851 180.397 472.79 181.38 465.874 180.942V180.937Z" fill="white"/>
<path d="M462.938 130.119C465.31 129.877 465.335 126.384 462.938 126.626C441.405 128.804 419.726 126.999 399.02 121.339C398.964 122.468 398.874 123.657 398.728 124.897C419.525 130.507 441.35 132.297 462.933 130.114L462.938 130.119Z" fill="white"/>
<path d="M422.441 148.723C413.883 147.988 405.195 147.211 396.818 145.392C396.944 146.087 397 146.788 396.964 147.473C396.939 148.023 396.894 148.507 396.833 148.945C405.215 150.689 413.883 151.476 422.436 152.211C436.821 153.446 451.599 154.338 465.34 149.908C465.34 149.888 465.34 149.868 465.34 149.847C465.411 148.602 465.466 147.388 465.511 146.178C451.856 151.082 436.761 149.948 422.436 148.718L422.441 148.723Z" fill="white"/>
<path d="M446.86 176.148C439.808 176.249 432.742 176.199 425.695 176.103C416.452 175.972 407.21 175.614 398.027 174.732C398.093 175.942 398.133 177.101 398.153 178.235C407.779 179.142 417.46 179.5 427.146 179.611C434.504 179.697 441.909 179.848 449.268 179.586C454.949 179.379 460.601 178.583 465.481 175.846C465.411 174.777 465.345 173.709 465.295 172.64C465.28 172.373 465.27 172.106 465.255 171.839C465.184 171.874 465.114 171.904 465.043 171.955C459.679 175.533 453.282 176.058 446.875 176.153L446.86 176.148Z" fill="white"/>
<path d="M45.919 170.08C42.7861 162.257 42.2421 153.608 44.136 145.447C43.5467 145.669 42.9775 145.911 42.4285 146.173C40.731 154.409 41.4312 163.104 44.6447 170.911C46.4781 175.367 49.0721 179.465 52.2554 183.034C52.3864 183.039 52.5173 183.044 52.6483 183.044C52.7994 183.044 52.9455 183.054 53.0966 183.059C53.2779 183.059 53.4592 183.059 53.6456 183.059C53.8017 183.059 53.9528 183.059 54.109 183.059C54.1745 183.059 54.2399 183.059 54.3054 183.054C50.7343 179.309 47.8532 174.903 45.919 170.075V170.08Z" fill="white"/>
<path d="M59.5286 165.997C61.7751 171.567 65.3009 176.537 69.7333 180.529C70.3176 180.372 70.8868 180.211 71.4509 180.045C66.8875 176.148 63.2408 171.194 60.9792 165.599C57.8564 157.877 57.4988 149.207 59.7553 141.233C59.1911 141.465 58.627 141.667 58.0578 141.833C56.028 149.792 56.4309 158.32 59.5236 165.997H59.5286Z" fill="white"/>
<path d="M74.2118 133.451C74.0405 133.552 73.8692 133.648 73.693 133.748C73.5167 133.849 73.3504 133.95 73.1742 134.046C73.018 134.136 72.8518 134.222 72.6906 134.308C72.1869 148.739 75.8236 163.164 83.0565 175.639C83.5098 175.428 83.9581 175.221 84.4014 175.009C77.113 162.509 73.5116 147.912 74.2067 133.446L74.2118 133.451Z" fill="white"/>
<path d="M85.2266 124.247C87.4881 139.595 92.5049 154.464 100.01 168.023C100.503 167.877 101.007 167.741 101.511 167.62C93.8094 153.804 88.697 138.597 86.5412 122.906C86.108 123.345 85.6698 123.794 85.2266 124.252V124.247Z" fill="white"/>
<path d="M193.092 183.341C193.454 183.417 193.822 183.497 194.185 183.568C194.316 183.593 194.442 183.623 194.568 183.654C200.018 167.832 203.166 151.239 203.876 134.509C203.382 134.147 202.889 133.794 202.4 133.446C201.77 150.417 198.637 167.257 193.092 183.341Z" fill="white"/>
<path d="M202.204 186.285C202.662 186.491 203.121 186.698 203.584 186.92C211.336 174.954 216.625 161.501 219.143 147.494C218.68 147.171 218.231 146.843 217.798 146.516C215.355 160.654 210.036 174.233 202.204 186.285Z" fill="white"/>
<path d="M215.637 192.706C215.732 192.747 215.833 192.792 215.929 192.832C216.302 192.994 216.679 193.155 217.067 193.311C225.736 182.152 231.165 168.643 232.717 154.646C232.233 154.439 231.75 154.233 231.266 154.021C229.8 168.038 224.396 181.587 215.637 192.706Z" fill="white"/>
<path d="M86.2244 261.589C70.5949 261.075 56.396 261.059 56.3909 261.059C54.7791 301.257 53.6106 352.402 55.2274 398.658V410.432H98.2373L71.4965 398.658L86.2193 261.589H86.2244Z" fill="#336699"/>
<path d="M123.336 399.449V398.663L120.687 383.703C113.132 383.234 106.327 382.534 101.003 381.586C102.015 387.11 103.103 392.796 104.272 398.668H104.604L104.272 398.769V410.448H151.442H123.336V399.454V399.449Z" fill="#336699"/>
<path d="M93.3811 333.727C96.5644 311.323 100.992 284.266 104.684 262.471C99.2642 262.108 93.3559 261.841 87.5938 261.639C87.7449 275.883 88.8782 299.841 93.3862 333.727H93.3811Z" fill="#336699"/>
<path d="M356.729 242.4L366.798 402.222L361.308 410.438H382.589C382.589 410.438 382.589 410.407 382.594 410.352C382.664 409.465 383.304 401.254 384.266 388.512V388.497C386.9 353.531 391.922 284.513 394.038 239.139C389.469 240.545 373.477 242.465 356.729 242.4Z" fill="#336699"/>
<path d="M341.196 396.864L351.542 242.314C333.837 241.79 316.591 238.942 315.06 237.813C315.075 242.002 315.105 246.372 315.155 250.913C315.503 284.286 316.797 326.656 320.494 369.509C321.552 381.773 322.806 394.076 324.292 406.219C324.463 407.625 324.64 409.031 324.816 410.432H353.949L341.896 402.585L341.201 396.859L341.196 396.864Z" fill="#336699"/>
<path d="M61.3873 181.849C61.5737 181.98 61.76 182.106 61.9464 182.237C62.6465 182.116 63.3315 181.99 64.0065 181.859C59.4733 178.921 55.4539 175.292 53.2679 170.286C51.107 165.337 51.1927 159.747 51.3891 154.454C51.5402 150.447 51.9029 146.405 53.0563 142.579C52.8599 142.645 52.6634 142.71 52.467 142.776C52.2303 142.856 51.9935 142.932 51.7618 143.013C51.6208 143.058 51.4848 143.103 51.3438 143.149C50.7544 145.361 50.3868 147.63 50.1651 149.933C49.7471 154.333 49.5607 158.895 50.0191 163.295C50.4371 167.302 51.5956 171.158 53.8975 174.495C55.9021 177.403 58.5264 179.793 61.3772 181.849H61.3873Z" fill="#336699"/>
<path d="M92.1982 171.184C84.9653 158.084 79.0016 143.9 80.6184 128.935C80.563 128.985 80.5026 129.036 80.4472 129.081C80.2961 129.212 80.15 129.343 79.9939 129.474C79.873 129.575 79.742 129.676 79.6111 129.782C79.4549 129.908 79.3038 130.034 79.1426 130.155C79.0923 130.19 79.0419 130.23 78.9915 130.265C77.8935 144.983 83.7413 158.91 90.8534 171.834C91.3067 171.612 91.755 171.39 92.1982 171.179V171.184Z" fill="#336699"/>
<path d="M276.9 112.871C262.716 106.071 250.023 98.3091 242.513 93.4552C238.881 107.76 189.998 105.461 195.02 84.1657C190.145 82.7493 183.405 81.5749 174.173 81.217C173.906 81.2069 173.639 81.1968 173.367 81.1868C172.767 81.1666 172.158 81.1515 171.538 81.1414C167.212 81.0507 162.391 81.1313 156.992 81.4438C142.581 82.2755 131.646 80.9196 123.058 79.5839C106.039 76.9427 98.2567 74.3923 91.0238 89.1002C91.0036 89.1406 90.9835 89.1809 90.9633 89.2262L87.916 96.7264C89.9962 96.8927 95.4764 102.029 103.42 107.689C105.394 109.096 107.525 110.532 109.786 111.938C109.998 112.069 110.209 112.206 110.426 112.337C110.748 112.533 111.071 112.725 111.393 112.921C115.231 115.2 119.427 117.337 123.93 119.03C125.315 119.549 126.725 120.023 128.161 120.452C128.362 120.512 128.564 120.573 128.765 120.628C143.84 124.928 162.175 122.458 174.55 121.929C174.586 121.929 174.626 121.929 174.661 121.929C177.658 121.803 180.64 122.176 183.491 123.012C183.556 123.032 183.622 123.048 183.687 123.068C183.969 123.153 184.251 123.244 184.533 123.34C184.831 123.441 185.123 123.547 185.42 123.657C186.528 124.076 187.611 124.565 188.659 125.119C188.795 125.195 188.936 125.265 189.072 125.341C189.596 125.487 190.845 126.112 192.537 127.085C193.041 127.372 193.58 127.69 194.154 128.038C194.592 128.3 195.045 128.577 195.514 128.869C195.866 129.086 196.229 129.313 196.597 129.55C197.292 129.993 198.007 130.457 198.748 130.946C199.06 131.153 199.377 131.364 199.694 131.581C200.581 132.176 201.488 132.806 202.399 133.456C202.888 133.804 203.381 134.162 203.875 134.52C204.444 134.938 205.018 135.361 205.588 135.795C206.902 136.793 208.197 137.821 209.436 138.864C210.055 139.384 210.66 139.908 211.244 140.432C211.259 140.447 211.274 140.462 211.289 140.472C209.144 155.77 204.344 170.649 197.126 184.334C197.06 184.314 196.995 184.294 196.929 184.274C196.667 184.193 196.405 184.117 196.143 184.047C195.997 184.006 195.851 183.971 195.7 183.931C195.453 183.865 195.212 183.805 194.96 183.749C194.804 183.714 194.653 183.679 194.496 183.649C194.391 183.628 194.29 183.598 194.184 183.578C193.413 183.422 192.648 183.26 191.882 183.094C190.351 182.756 188.825 182.394 187.309 182C186.669 181.834 186.034 181.658 185.4 181.481C184.916 181.345 184.438 181.204 183.959 181.063C181.315 180.282 178.701 179.405 176.132 178.391L174.712 177.832C174.001 182.383 173.276 187.101 172.546 191.95C171.997 195.594 171.438 199.314 170.884 203.084C168.944 216.225 167 230.041 165.207 243.771C160.518 279.734 156.911 315.118 157.359 336.283C157.43 339.705 164.184 342.437 174.273 344.403C182.02 345.915 191.736 346.968 201.906 347.538C210.282 348.007 218.961 348.143 227.1 347.931C237.199 347.664 246.467 346.858 253.292 345.477C258.691 344.383 262.56 342.926 264.101 341.086C265.401 339.534 266.403 336.661 267.143 332.709C270.08 317.129 269.012 284.749 266.524 250.253C265.088 230.358 263.174 209.758 261.285 191.28C259.19 194.092 256.213 196.401 252.325 197.777C251.771 197.973 251.197 198.15 250.607 198.311C249.791 198.533 248.935 198.714 248.044 198.861C245.928 199.203 243.596 199.329 241.032 199.188C240.478 199.158 239.909 199.118 239.33 199.062C238.619 198.997 237.894 198.906 237.154 198.8C236.383 198.689 235.628 198.568 234.887 198.442C234.645 198.402 234.414 198.357 234.177 198.316C234.127 198.306 234.081 198.301 234.031 198.291C233.714 198.236 233.386 198.18 233.074 198.12C232.948 198.094 232.832 198.069 232.711 198.044C232.439 197.989 232.172 197.933 231.91 197.883C231.472 197.792 231.039 197.701 230.611 197.606C230.344 197.545 230.082 197.485 229.82 197.424C229.649 197.384 229.467 197.348 229.296 197.303C229.049 197.243 228.813 197.182 228.571 197.122C228.324 197.061 228.082 197.001 227.841 196.94C227.402 196.824 226.974 196.708 226.546 196.592C226.35 196.537 226.148 196.487 225.952 196.426C225.337 196.25 224.733 196.073 224.143 195.887C223.861 195.801 223.594 195.71 223.317 195.62C232.777 185.08 239.189 172 241.838 158.139C243.047 158.562 244.251 158.971 245.444 159.359C245.948 159.525 246.452 159.686 246.95 159.848C248.401 160.311 249.832 160.755 251.217 161.168C251.796 161.34 252.35 161.541 252.894 161.753C253.362 161.939 253.826 162.131 254.269 162.348C255.846 163.109 257.256 164.046 258.49 165.12C258.404 164.344 258.314 163.588 258.223 162.842C255.765 142.383 252.421 132.362 264.106 128.174C279.232 122.75 285.785 132.201 302.155 127.085C306.053 125.865 310.506 123.824 315.764 120.553C305.539 120.951 291.27 119.761 276.9 112.876V112.871ZM221.761 195.095C221.408 194.974 221.061 194.853 220.718 194.727C220.512 194.652 220.305 194.576 220.099 194.501C219.907 194.43 219.706 194.359 219.515 194.284C219.374 194.228 219.233 194.173 219.092 194.118C218.885 194.037 218.678 193.956 218.477 193.876C218.346 193.825 218.21 193.775 218.079 193.719C217.888 193.644 217.696 193.563 217.51 193.482C217.319 193.407 217.132 193.326 216.941 193.251C216.598 193.109 216.261 192.963 215.928 192.822C215.893 192.807 215.858 192.792 215.823 192.777C215.762 192.752 215.697 192.726 215.636 192.696C215.581 192.671 215.525 192.646 215.47 192.626C214.991 192.414 214.518 192.207 214.05 191.996C213.621 191.799 213.203 191.607 212.785 191.411C212.745 191.391 212.705 191.37 212.664 191.355C212.513 191.285 212.362 191.214 212.211 191.139C211.909 190.998 211.612 190.851 211.315 190.71C211.143 190.63 210.977 190.544 210.806 190.463C210.529 190.327 210.257 190.196 209.985 190.06C209.814 189.974 209.647 189.894 209.481 189.813C209.385 189.768 209.29 189.717 209.199 189.672C209.013 189.581 208.831 189.49 208.65 189.4C208.539 189.344 208.423 189.289 208.313 189.233C208.252 189.203 208.192 189.173 208.131 189.143C207.779 188.966 207.436 188.795 207.089 188.623C207.038 188.598 206.988 188.573 206.938 188.548C206.57 188.366 206.202 188.18 205.839 188.003C205.447 187.812 205.059 187.62 204.671 187.434C204.55 187.373 204.429 187.318 204.308 187.258C204.041 187.132 203.774 187 203.507 186.874C203.361 186.804 203.215 186.738 203.069 186.673C202.827 186.562 202.586 186.451 202.344 186.34C202.193 186.27 202.042 186.204 201.891 186.139C201.654 186.033 201.412 185.932 201.175 185.826C201.029 185.766 200.883 185.7 200.732 185.64C200.475 185.534 200.218 185.428 199.961 185.327C199.836 185.277 199.71 185.226 199.584 185.176C199.241 185.045 198.899 184.919 198.556 184.793C198.556 184.793 198.561 184.793 198.566 184.793C205.633 171.315 210.383 156.713 212.609 141.682C213.264 142.307 213.888 142.932 214.468 143.547C215.415 144.555 216.538 145.543 217.792 146.501C218.225 146.828 218.673 147.156 219.137 147.478C221.081 148.834 223.292 150.13 225.675 151.365C226.143 151.607 226.617 151.849 227.1 152.085C228.445 152.751 229.84 153.391 231.261 154.016C231.739 154.228 232.223 154.434 232.711 154.641C235.225 155.704 237.814 156.697 240.403 157.625C237.793 171.516 231.331 184.616 221.761 195.09V195.095Z" fill="#257CE6"/>
<path d="M244.095 175.271C242.071 183.689 237.361 190.982 232.42 197.978C232.521 197.999 232.616 198.019 232.712 198.039C232.833 198.064 232.954 198.089 233.075 198.115C233.387 198.175 233.714 198.231 234.032 198.286C238.928 191.32 243.531 184.037 245.541 175.675C246.795 170.473 247.102 165.165 246.946 159.848C246.448 159.686 245.944 159.525 245.44 159.359C245.627 164.707 245.35 170.049 244.095 175.271Z" fill="white"/>
<path d="M257.061 177.509C256.31 182.041 255.152 186.547 253.288 190.756C252.039 193.583 250.462 196.759 248.05 198.856C248.941 198.709 249.798 198.528 250.614 198.306C251.938 196.713 252.991 194.848 253.903 192.983C255.983 188.724 257.353 184.153 258.229 179.505C259.04 175.196 259.433 170.811 259.861 166.446C259.433 165.987 258.975 165.543 258.496 165.125C258.124 169.258 257.741 173.422 257.066 177.509H257.061Z" fill="white"/>
<path d="M415.898 62.6179C418.044 62.018 420.472 61.509 423.217 61.1007C420.477 60.2892 418.049 58.9484 416.045 57.0835L415.903 62.6179H415.898Z" fill="#CC9999"/>
<path d="M438.927 59.9867C439.687 59.9767 440.458 59.9716 441.249 59.9716C441.249 59.9716 441.843 59.9263 442.825 60.0069V57.2498C441.662 58.2982 440.367 59.2307 438.927 59.9867Z" fill="#CC9999"/>
<path d="M374.565 77.7643L374.354 76.4437C373.654 76.847 372.948 77.2149 372.238 77.5476C373.074 77.5778 373.85 77.6434 374.565 77.7643Z" fill="#663333"/>
<path d="M356.261 76.5899C355.364 75.98 354.458 75.2643 353.551 74.4276L353.314 77.0435C354.151 76.7512 355.123 76.5849 356.266 76.5899H356.261Z" fill="#663333"/>
<path d="M394.033 239.139C394.461 239.008 394.799 238.882 395.015 238.761C397.116 237.606 397.095 233.503 396.315 228.967C395.398 229.35 394.421 229.607 393.418 229.698C376.006 231.291 330.034 234.154 313.619 227.465C313.191 231.502 313.136 236.336 315.04 237.803C315.04 237.803 315.05 237.808 315.055 237.813C316.586 238.942 333.832 241.785 351.537 242.314C352.338 242.339 353.139 242.359 353.939 242.375C354.866 242.39 355.798 242.4 356.725 242.4C373.472 242.465 389.459 240.545 394.033 239.139Z" fill="#D9D9D9"/>
<path d="M394.416 152.519C394.416 152.519 396.269 153.184 396.838 148.945C396.899 148.507 396.939 148.018 396.969 147.473C397.005 146.783 396.944 146.087 396.823 145.392C396.682 144.6 396.451 143.809 396.158 143.043C395.705 141.843 394.995 140.83 394.119 140.019C392.809 138.799 391.122 138.058 389.349 137.871C390.361 140.356 390.971 143.431 391.041 147.146L394.416 152.524V152.519Z" fill="#CC9999"/>
<path d="M197.383 379.187C198.838 378.532 199.755 377.821 200.022 377.045L199.105 367.14L197.383 379.192V379.187Z" fill="#FFC800"/>
<path d="M174.274 344.403C164.185 342.437 157.431 339.705 157.36 336.283C156.912 315.118 160.518 279.739 165.208 243.771C166.996 230.041 168.945 216.225 170.884 203.084L170.799 203.115C169.192 214.133 167.575 225.711 166.044 237.47C151.447 238.03 121.271 236.911 120.883 236.881C116.969 236.185 112.97 236.623 109.273 235.852C108.059 242.793 106.457 252.027 104.689 262.471C100.997 284.266 96.57 311.323 93.3867 333.727C90.2085 356.077 88.2693 373.794 89.5234 377.045C90.2488 378.92 94.5251 380.427 101.003 381.581C106.326 382.529 113.131 383.234 120.687 383.698C126.509 384.056 132.775 384.273 139.137 384.353C146.339 384.439 153.673 384.353 160.639 384.076C165.419 383.89 170.023 383.622 174.294 383.27C173.891 368.657 173.937 355.734 174.269 344.403H174.274Z" fill="#FFC800"/>
<path d="M389.349 137.866C388.599 136.017 387.622 134.499 386.473 133.305C381.668 128.29 373.871 128.874 367.051 134.126C363.359 136.969 357.844 135.966 352.217 133.446C341.645 128.708 330.68 118.602 330.68 118.602L328.171 119.353L328.186 119.156C325.648 119.65 321.296 120.336 315.76 120.553C310.502 123.819 306.049 125.865 302.151 127.085C285.781 132.201 279.228 122.75 264.102 128.174C252.417 132.362 255.761 142.388 258.219 162.842C258.31 163.588 258.395 164.349 258.486 165.12C258.97 165.538 259.423 165.982 259.851 166.441C261.891 168.623 263.332 171.224 264.163 173.996C266.243 174.309 268.333 174.929 268.927 176.148C270.071 178.507 272.378 187.011 262.793 188.875C262.354 189.707 261.856 190.509 261.287 191.275C263.175 209.758 265.089 230.353 266.525 250.248C268.006 250.585 269.567 250.812 271.214 250.913H315.146C315.101 246.372 315.07 241.997 315.05 237.813C315.05 237.813 315.04 237.808 315.035 237.803C313.131 236.336 313.187 231.502 313.615 227.465C310.824 226.326 308.88 224.915 308.084 223.176C305.782 218.13 309.505 205.091 310.95 194.979C313.61 176.385 317.181 158.386 322.187 152.534C327.214 160.493 337.696 171.662 357.42 173.154C375.709 174.535 391.379 165.201 391.037 147.136C390.966 143.421 390.352 140.346 389.344 137.861L389.349 137.866Z" fill="#FFC800"/>
<path d="M170.794 203.115L170.88 203.084C171.434 199.314 171.993 195.594 172.542 191.95C172.512 191.95 172.476 191.95 172.446 191.95C171.897 195.594 171.348 199.319 170.794 203.115Z" fill="#999999"/>
<path d="M80.2009 120.29C79.5159 120.19 78.8409 120.084 78.171 119.973C77.2795 121.908 76.3326 123.763 75.3252 125.512C75.5468 125.341 75.7684 125.175 75.9901 125.003C77.7076 123.683 79.1986 122.206 80.2009 120.29Z" fill="#999999"/>
<path d="M66.0566 137.574C66.1624 137.529 66.2682 137.478 66.3739 137.433C68.5851 136.44 70.7107 135.397 72.6902 134.308C72.8514 134.222 73.0126 134.131 73.1737 134.046C73.35 133.945 73.5213 133.849 73.6925 133.748C73.8638 133.648 74.0401 133.552 74.2113 133.451C75.9591 132.428 77.5659 131.369 78.9964 130.27C79.0467 130.235 79.0971 130.195 79.1475 130.16C79.3087 130.034 79.4598 129.908 79.6159 129.787C79.7418 129.686 79.8728 129.585 79.9987 129.479C80.1549 129.348 80.3009 129.217 80.452 129.086C80.5074 129.036 80.5679 128.985 80.6233 128.94C81.2025 128.431 81.7415 127.912 82.2351 127.387C83.2525 126.304 84.2498 125.26 85.227 124.252C85.6702 123.793 86.1084 123.35 86.5416 122.906C87.1158 122.322 87.685 121.752 88.2491 121.193C85.7407 121.006 83.2777 120.734 80.9003 120.391C80.0944 122.009 79.0064 123.486 77.4903 124.761C76.4779 125.613 75.4101 126.409 74.3272 127.186C71.8692 131.168 69.1241 134.55 66.1977 137.11C65.8652 137.403 65.5328 137.685 65.1953 137.952C65.2658 137.922 65.3414 137.892 65.4119 137.856C65.6285 137.761 65.8501 137.665 66.0617 137.569L66.0566 137.574Z" fill="#999999"/>
<path d="M107.797 166.884C105.571 166.874 103.501 167.141 101.506 167.62C101.003 167.741 100.504 167.877 100.005 168.023C97.3812 168.794 94.8476 169.908 92.1932 171.184C91.75 171.395 91.3017 171.617 90.8484 171.839C88.9545 172.771 86.9851 173.774 84.8645 174.787C84.7084 174.863 84.5523 174.939 84.3961 175.009C83.9529 175.221 83.5046 175.428 83.0513 175.639C81.3992 176.4 79.6463 177.156 77.7726 177.882C77.284 178.074 76.7854 178.26 76.2767 178.447C74.7505 179.006 73.1437 179.541 71.4413 180.045C70.8822 180.211 70.308 180.372 69.7237 180.529C67.9255 181.017 66.0216 181.461 63.9968 181.859C63.3218 181.99 62.6368 182.116 61.9367 182.237C61.1509 182.373 60.3551 182.499 59.5341 182.615C57.605 182.892 55.7917 183.039 54.0942 183.059C53.9381 183.059 53.787 183.059 53.6309 183.059C53.4495 183.059 53.2632 183.059 53.0818 183.059C52.9307 183.059 52.7847 183.049 52.6336 183.044C49.5208 182.953 46.7958 182.449 44.4184 181.612C43.7686 181.385 43.1491 181.128 42.5548 180.851C42.4288 180.796 42.3079 180.735 42.182 180.675C42.1417 180.655 42.1065 180.639 42.0662 180.619C41.3459 180.261 40.671 179.873 40.0262 179.45C37.4121 177.726 35.4175 175.478 34.0374 172.948C32.3651 172.781 30.9901 172.439 29.8618 171.975C28.522 185.216 32.0378 198.523 45.5164 208.745C41.1595 248.211 56.381 261.054 56.381 261.054C56.381 261.054 70.585 261.07 86.2144 261.584C86.6728 261.599 87.1261 261.614 87.5845 261.629C93.3517 261.831 99.2549 262.098 104.675 262.461C106.443 252.017 108.044 242.783 109.258 235.842C107.868 235.555 106.513 235.096 105.229 234.34C104.705 233.997 104.206 233.609 103.748 233.166C102.373 231.835 101.345 230.046 100.947 227.788C100.418 224.476 100.685 221.467 101.31 218.458C101.476 217.682 101.693 216.895 101.955 216.104C102.101 215.398 102.272 214.703 102.468 214.007C103.652 209.849 105.737 205.877 107.939 202.313C108.301 201.633 108.654 200.962 108.981 200.297C109.303 199.642 109.606 198.997 109.878 198.362C110.432 197.051 110.724 195.64 110.724 194.213C110.724 194.208 110.724 194.198 110.724 194.193C110.739 193.498 111.031 192.726 110.714 192.111C103.4 177.862 111.973 171.138 112.965 169.177C113.006 169.112 113.046 169.046 113.086 168.981C111.736 168.3 110.447 167.605 109.223 166.924C108.734 166.899 108.261 166.884 107.787 166.879L107.797 166.884Z" fill="#999999"/>
<path d="M45.4466 145.004C47.3506 144.434 49.3351 143.814 51.3549 143.154C51.4959 143.108 51.6319 143.063 51.773 143.018C52.0097 142.942 52.2414 142.861 52.4781 142.781C52.6746 142.715 52.871 142.65 53.0674 142.584C53.1934 142.544 53.3193 142.498 53.4452 142.453C52.2515 142.418 51.0476 142.226 49.8489 141.868C46.046 140.729 43.5477 139.373 41.9863 137.932C39.3923 142.478 36.8235 147.594 34.708 153.013C36.9998 149.389 40.586 146.455 45.4466 145.004Z" fill="#999999"/>
<path d="M486.148 177.822C487.185 173.573 487.795 168.946 487.845 163.915C481.967 169.556 473.752 172.731 465.285 172.64C465.34 173.709 465.401 174.777 465.471 175.846C460.596 178.583 454.939 179.384 449.258 179.586C441.904 179.853 434.494 179.697 427.136 179.611C417.45 179.5 407.769 179.142 398.143 178.235C398.209 181.92 398.093 185.347 398.168 189.48C400.259 189.385 402.248 189.254 403.946 189.259C410.675 189.264 417.399 189.269 424.129 189.259C437.829 189.243 451.534 189.198 465.234 189.128C466.202 189.122 466.771 189.677 466.967 190.347C466.992 190.534 467.018 190.715 467.043 190.902C467.028 191.764 466.423 192.615 465.234 192.621C450.038 192.701 434.842 192.747 419.641 192.757C412.513 192.757 405.386 192.757 398.264 192.742C398.35 194.727 398.486 196.895 398.707 199.324C399.196 204.697 400.103 211.351 401.755 220.161C402.369 223.443 400.541 226.467 397.771 228.206C403.769 228.987 410.584 229.577 417.545 229.925C419.082 230 420.618 230.066 422.159 230.116C439.471 230.696 456.717 229.698 463.603 226.311C464.197 226.018 464.721 225.711 465.154 225.383C472.402 219.884 471.984 211.129 470.543 205.121C473.077 202.596 475.57 199.692 477.852 196.366C474.779 197.565 471.5 198.16 468.216 198.175L468.06 197.298C467.904 196.426 467.758 195.554 467.617 194.682C472.085 194.743 476.588 193.548 480.416 191.083C480.688 190.907 480.96 190.816 481.222 190.791C482.652 188.089 483.916 185.166 484.949 182.005C479.015 183.986 472.568 184.778 466.227 184.45C466.096 183.276 465.98 182.101 465.869 180.927C472.785 181.37 479.846 180.382 486.138 177.812L486.148 177.822Z" fill="#999999"/>
<path d="M463.678 163.885C441.834 170.196 418.326 169.964 396.718 163.552C397.479 167.993 397.851 171.552 398.023 174.737C407.205 175.619 416.448 175.977 425.69 176.108C432.742 176.209 439.809 176.254 446.855 176.153C453.262 176.058 459.659 175.533 465.023 171.955C465.094 171.909 465.164 171.879 465.235 171.839C465.195 170.957 465.159 170.07 465.129 169.188C473.954 169.374 482.532 165.387 487.694 158.648C487.382 153.87 486.581 148.769 485.181 143.31C485.156 143.209 485.126 143.108 485.1 143.008C480.854 151.234 474.624 158.557 465.008 160.775C465.013 159.581 465.033 158.381 465.059 157.186C474.503 154.611 480.043 145.966 483.619 137.519C482.204 132.014 481.146 126.42 480.371 120.779C478.653 126.021 476.381 131.107 473.556 135.936C471.531 139.394 468.892 142.927 465.537 145.377C465.592 143.759 465.628 142.171 465.648 140.613C468.418 137.771 470.488 134.051 472.125 130.901C475.168 125.049 477.354 118.874 478.784 112.533C476.593 104.358 472.961 98.7728 468.811 94.9774C468.645 102.074 468.04 109.191 466.539 116.061C466.106 118.037 465.537 119.983 464.837 121.883C464.51 118.693 464.086 115.689 463.598 112.841C454.325 117.906 441.441 117.387 431.221 116.782C428.526 116.621 425.846 116.374 423.177 116.046C411.522 119.958 403.755 120.396 399.065 119.968C399.055 120.411 399.04 120.87 399.02 121.339C419.727 126.999 441.4 128.804 462.938 126.626C465.336 126.384 465.31 129.877 462.938 130.119C441.355 132.302 419.53 130.507 398.733 124.902C398.411 127.72 397.821 130.769 396.819 133.824C419.268 139.177 442.755 140.054 465.653 136.274C465.668 137.428 465.668 138.612 465.663 139.802C442.327 143.532 418.412 142.625 395.55 137.125C395.121 138.098 394.653 139.066 394.119 140.009C394.991 140.82 395.701 141.833 396.159 143.033C396.451 143.804 396.683 144.59 396.824 145.382C405.195 147.201 413.889 147.977 422.447 148.713C436.776 149.943 451.867 151.077 465.522 146.173C465.477 147.383 465.421 148.597 465.351 149.842C465.351 149.863 465.351 149.883 465.351 149.903C451.615 154.333 436.832 153.441 422.447 152.206C413.894 151.47 405.225 150.684 396.844 148.94C396.275 153.179 394.421 152.514 394.421 152.514C395.046 155.125 395.565 157.494 395.998 159.666C417.425 166.43 440.907 166.803 462.686 160.513C464.998 159.843 465.98 163.215 463.683 163.88L463.678 163.885ZM465.159 163.411C465.391 163.925 465.331 164.883 465.049 166.173C465.028 165.145 465.013 164.112 465.008 163.084C465.059 163.195 465.104 163.3 465.154 163.411H465.159Z" fill="#999999"/>
<path d="M422.703 81.7916C439.234 80.7079 455.443 80.5517 461.815 83.2735C458.888 63.2227 447.117 60.3698 442.826 60.0069C441.843 59.9212 441.249 59.9716 441.249 59.9716C440.458 59.9716 439.688 59.9766 438.927 59.9867C432.787 60.0623 427.604 60.4555 423.217 61.1057C420.477 61.514 418.044 62.0231 415.899 62.6229C412.594 63.5503 409.965 64.6894 407.885 66.005C402.974 69.1049 401.13 73.1624 400.763 77.6131C401.095 77.5929 401.428 77.5778 401.765 77.5627C411.527 77.2351 415.974 80.0174 422.703 81.7967V81.7916Z" fill="#999999"/>
<path d="M443.839 113.692C450.694 113.506 457.559 112.422 462.903 109.131C463.11 110.134 463.301 111.157 463.488 112.206C464.44 106.52 464.888 100.723 465.039 94.932C464.067 95.552 463.11 96.1518 462.163 96.7415C448.941 104.973 437.956 110.411 428.935 113.955C433.936 114.625 439.099 114.61 443.834 113.698L443.839 113.692Z" fill="#999999"/>
<path d="M230.768 80.9398C229.473 80.6273 228.068 80.34 226.537 80.0678C223.6 79.5436 220.225 79.0849 216.367 78.6615C212.388 78.223 209.164 78.1424 206.54 78.2885C205.21 78.3641 204.037 78.4952 202.999 78.6766C195.756 79.9216 195.247 83.2937 195.247 83.2937C195.157 83.5911 195.086 83.8784 195.021 84.1707C189.999 105.467 238.882 107.765 242.514 93.4602C242.594 93.1376 242.66 92.815 242.695 92.4773C242.952 90.0025 242.529 87.9913 241.315 86.323C239.567 83.9237 236.177 82.2402 230.768 80.9398Z" fill="#345F96"/>
<path d="M90.9596 89.2321C90.9797 89.1917 90.9999 89.1513 91.0201 89.1059C90.7275 88.9696 90.435 88.8283 90.1475 88.6819L90.9545 89.2321H90.9596Z" fill="#D9D9D9"/>
<path d="M80.4567 119.776C81.3532 117.821 81.7965 115.668 82.1541 113.556C82.4916 111.565 82.7031 109.539 82.683 107.523C81.464 111.918 79.9379 116.112 78.1699 119.973C78.8398 120.084 79.5148 120.19 80.1998 120.29C80.2904 120.119 80.3811 119.953 80.4617 119.776H80.4567Z" fill="#D9D9D9"/>
<path d="M80.8945 120.391C83.2719 120.729 85.735 121.006 88.2433 121.193C87.6842 121.747 87.1151 122.322 86.5358 122.906C88.6916 138.597 93.799 153.804 101.505 167.62C103.5 167.141 105.565 166.874 107.797 166.884C106.386 164.737 105.102 162.514 103.933 160.221C103.309 162.756 102.961 164.329 102.961 164.329C100.03 162.524 98.2516 161.214 98.2516 161.214C98.5286 158.416 98.851 155.77 99.2086 153.255C98.6747 151.304 98.5488 149.187 98.5387 147.116C96.8967 142.201 95.5518 137.186 94.3229 132.161C93.255 127.801 92.0512 123.405 91.4266 118.96C91.3914 118.703 91.3561 118.446 91.3259 118.189C91.7843 117.75 92.2426 117.322 92.6909 116.898C92.8974 119.408 93.4565 121.929 94.0106 124.318C95.2345 129.62 96.4887 134.923 97.9746 140.165C98.1811 140.901 98.3977 141.632 98.6193 142.367C98.8107 136.954 99.6519 131.803 101.747 126.742C103.868 121.621 106.784 116.888 109.645 112.16C109.69 112.085 109.736 112.009 109.781 111.933C107.519 110.532 105.389 109.091 103.414 107.684C95.4713 102.024 89.9911 96.8877 87.9109 96.7214H84.9643C84.5412 99.5894 83.9771 102.422 83.2921 105.189C83.559 107.755 83.4029 110.371 83.005 112.962C82.602 115.603 82.0228 118.133 80.8945 120.386V120.391Z" fill="#D9D9D9"/>
<path d="M465.547 145.382C468.902 142.927 471.546 139.399 473.566 135.941C476.391 131.107 478.658 126.026 480.381 120.784C480.35 120.563 480.315 120.341 480.285 120.124C479.917 117.372 479.409 114.857 478.789 112.543C477.359 118.884 475.173 125.059 472.13 130.911C470.493 134.061 468.423 137.781 465.653 140.623C465.638 142.181 465.602 143.769 465.542 145.387L465.547 145.382Z" fill="#D9D9D9"/>
<path d="M465.245 171.839C465.26 172.106 465.27 172.373 465.285 172.64C473.757 172.731 481.967 169.556 487.845 163.915C487.86 162.207 487.82 160.453 487.699 158.648C482.536 165.387 473.958 169.374 465.134 169.188C465.164 170.07 465.199 170.957 465.24 171.839H465.245Z" fill="#D9D9D9"/>
<path d="M467.627 194.687C467.768 195.559 467.914 196.431 468.07 197.303L468.226 198.18C471.505 198.165 474.789 197.565 477.862 196.371C479.056 194.627 480.189 192.772 481.232 190.796C480.97 190.826 480.703 190.912 480.426 191.088C476.598 193.553 472.095 194.748 467.627 194.687Z" fill="#D9D9D9"/>
<path d="M465.24 189.128C451.539 189.203 437.834 189.248 424.134 189.259C417.404 189.264 410.68 189.264 403.951 189.259C402.253 189.259 400.264 189.385 398.173 189.48C398.103 185.347 398.219 181.92 398.148 178.235C398.128 177.101 398.088 175.947 398.022 174.732C397.846 171.546 397.478 167.988 396.718 163.547C418.326 169.959 441.833 170.191 463.678 163.88C465.975 163.215 464.993 159.848 462.681 160.513C440.906 166.803 417.419 166.43 395.993 159.666C395.559 157.494 395.041 155.125 394.416 152.514L391.041 147.136C391.384 165.201 375.714 174.535 357.425 173.154C337.706 171.662 327.224 160.493 322.192 152.534C317.191 158.386 313.619 176.38 310.955 194.979C309.509 205.091 305.787 218.13 308.089 223.176C308.885 224.92 310.829 226.331 313.619 227.465C330.035 234.149 376.006 231.291 393.419 229.698C394.421 229.607 395.398 229.35 396.315 228.967C396.824 228.755 397.312 228.498 397.776 228.211C400.546 226.472 402.374 223.443 401.76 220.166C400.108 211.351 399.201 204.697 398.712 199.329C398.491 196.9 398.355 194.732 398.269 192.747C405.396 192.757 412.524 192.767 419.646 192.762C434.842 192.752 450.043 192.706 465.24 192.626C466.428 192.621 467.028 191.769 467.048 190.907C467.023 190.72 466.997 190.539 466.972 190.352C466.781 189.687 466.207 189.128 465.24 189.133V189.128Z" fill="#D9D9D9"/>
<path d="M183.683 123.063C183.617 123.042 183.552 123.027 183.486 123.007C183.522 123.199 183.552 123.395 183.587 123.587C183.622 123.39 183.653 123.219 183.683 123.063Z" fill="#D9D9D9"/>
<path d="M82.2298 127.387C81.7362 127.912 81.1972 128.426 80.618 128.94C78.9961 143.905 84.9598 158.089 92.1978 171.189C94.8522 169.908 97.3857 168.799 100.01 168.028C92.505 154.47 87.4832 139.6 85.2267 124.252C84.2496 125.26 83.2523 126.304 82.2348 127.387H82.2298Z" fill="#D9D9D9"/>
<path d="M78.9967 130.27C77.5663 131.369 75.9595 132.428 74.2117 133.451C73.5166 147.917 77.113 162.514 84.4064 175.014C84.5625 174.939 84.7186 174.863 84.8748 174.793C86.9903 173.779 88.9647 172.776 90.8586 171.844C83.7465 158.92 77.8987 144.994 78.9967 130.276V130.27Z" fill="#D9D9D9"/>
<path d="M99.6578 150.311C99.5571 150.029 99.4513 149.752 99.3506 149.469C99.3909 150.029 99.4463 150.588 99.5218 151.138C99.5672 150.861 99.6125 150.588 99.6528 150.311H99.6578Z" fill="#D9D9D9"/>
<path d="M72.6902 134.308C70.7057 135.397 68.5852 136.44 66.374 137.433C66.2682 137.478 66.1624 137.529 66.0566 137.574C66.2128 137.503 66.3689 137.433 66.5301 137.362C64.6161 151.687 68.8118 166.592 77.7825 177.882C79.6562 177.157 81.404 176.4 83.0611 175.639C75.8232 163.164 72.1916 148.739 72.6953 134.308H72.6902Z" fill="#D9D9D9"/>
<path d="M107.409 163.391C108.119 144.001 116.692 125.301 116.692 125.301C111.6 132.095 106.86 148.728 104.508 157.937C105.399 159.792 106.366 161.612 107.409 163.391Z" fill="#D9D9D9"/>
<path d="M99.3406 143.416C99.3356 143.809 99.3255 144.217 99.3154 144.626C99.5925 145.508 99.8846 146.385 100.182 147.257C102.942 132.1 107.173 122.191 111.394 112.916C111.066 112.725 110.744 112.528 110.427 112.332C107.712 116.813 104.942 121.288 102.841 126.097C100.403 131.667 99.4565 137.362 99.3507 143.416H99.3406Z" fill="#D9D9D9"/>
<path d="M64.9184 138.164C63.2462 139.469 61.5185 140.508 59.7606 141.233C57.4991 149.207 57.8617 157.882 60.9846 165.599C63.2462 171.194 66.8929 176.148 71.4563 180.045C73.1587 179.541 74.7655 179.006 76.2917 178.447C75.4606 177.383 74.6648 176.295 73.9143 175.176C66.7065 164.374 63.4577 151.042 64.9234 138.169L64.9184 138.164Z" fill="#D9D9D9"/>
<path d="M59.5284 165.997C56.4307 158.32 56.0328 149.787 58.0627 141.833C56.5365 142.282 54.9952 142.499 53.4438 142.453C53.3179 142.499 53.192 142.539 53.0661 142.584C51.9126 146.41 51.55 150.452 51.3989 154.459C51.1974 159.752 51.1118 165.342 53.2776 170.291C55.4636 175.292 59.4831 178.921 64.0163 181.864C66.0411 181.466 67.945 181.022 69.7432 180.534C65.3107 176.547 61.7849 171.577 59.5385 166.002L59.5284 165.997Z" fill="#D9D9D9"/>
<path d="M65.1846 137.957C65.255 137.927 65.3304 137.892 65.4008 137.861C65.3304 137.892 65.255 137.927 65.1846 137.957Z" fill="#D9D9D9"/>
<path d="M53.9081 174.495C51.6062 171.158 50.4478 167.302 50.0297 163.295C49.5713 158.895 49.7577 154.333 50.1758 149.933C50.3923 147.635 50.7651 145.361 51.3544 143.149C49.3346 143.814 47.3501 144.434 45.4461 144.999C40.5855 146.45 36.9993 149.389 34.7075 153.008C33.7908 154.454 33.0856 156.012 32.5819 157.63C31.0255 162.67 31.499 168.285 34.0477 172.948C35.4328 175.478 37.4224 177.726 40.0365 179.45C39.1803 177.782 38.4751 176.038 37.921 174.258C35.5033 166.511 35.9768 158.27 36.8381 150.266C37.3569 149.706 37.916 149.177 38.5154 148.683C37.5936 156.753 36.8834 165.1 39.1148 172.993C39.8955 175.75 41.0489 178.427 42.565 180.851C43.1644 181.128 43.784 181.385 44.4287 181.612C46.7054 182.409 49.2993 182.908 52.2459 183.024C49.0676 179.455 46.4737 175.362 44.6402 170.906C41.4267 163.099 40.7266 154.399 42.424 146.168C42.973 145.906 43.5422 145.664 44.1315 145.442C42.2376 153.603 42.7867 162.247 45.9146 170.075C47.8487 174.903 50.7298 179.304 54.301 183.054C55.948 183.024 57.6908 182.882 59.5444 182.615C60.3654 182.499 61.1612 182.368 61.947 182.237C61.7606 182.106 61.5742 181.98 61.3879 181.849C58.537 179.793 55.9128 177.403 53.9081 174.495Z" fill="#D9D9D9"/>
<path d="M52.6485 183.049C52.5123 183.049 52.3811 183.034 52.25 183.029C52.25 183.029 52.25 183.029 52.255 183.034C52.3862 183.039 52.5173 183.044 52.6485 183.044V183.049Z" fill="#D9D9D9"/>
<path d="M54.3046 183.059C54.2392 183.059 54.1738 183.059 54.1084 183.064C54.1738 183.064 54.2392 183.064 54.3046 183.059Z" fill="#D9D9D9"/>
<path d="M192.538 127.08C190.84 126.107 189.596 125.482 189.072 125.336C188.936 125.26 188.795 125.185 188.659 125.114L187.617 125.336L186.529 126.329C186.997 127.418 187.465 128.506 187.934 129.595C188.156 130.114 188.382 130.633 188.599 131.158C190.971 136.863 192.366 142.579 191.722 148.784C191.097 154.802 189.072 160.553 186.987 166.199C186.967 168.971 186.906 170.549 186.906 170.549C186.906 170.549 185.279 170.382 182.56 170.201C181.94 161.103 180.53 150.689 179.704 145.004C179.321 142.373 179.059 140.75 179.059 140.75L179.301 147.206L180.162 170.06C178.666 169.979 176.964 169.908 175.12 169.858C173.982 169.828 172.793 169.803 171.554 169.792C169.62 169.777 167.585 169.792 165.485 169.848L163.137 149.979C163.137 149.979 163.077 159.399 163.107 169.929C159.234 170.095 155.219 170.417 151.346 170.982L149.578 165.831V171.259C146.324 171.804 143.201 172.529 140.386 173.492C131.209 176.622 121.175 173.064 113.101 168.981C113.061 169.046 113.02 169.112 112.98 169.178C111.993 171.143 103.42 177.862 110.729 192.111C111.046 192.731 110.754 193.503 110.739 194.193C110.739 194.198 110.739 194.208 110.739 194.213C110.739 195.64 110.447 197.051 109.892 198.362C109.62 199.002 109.318 199.647 108.996 200.297C108.669 200.962 108.316 201.633 107.953 202.313C105.752 205.877 103.667 209.849 102.483 214.007C102.287 214.698 102.116 215.398 101.969 216.104C101.708 216.895 101.496 217.682 101.325 218.458C100.7 221.467 100.433 224.476 100.962 227.788C101.36 230.046 102.388 231.835 103.763 233.166C104.221 233.609 104.72 234.002 105.243 234.34C106.528 235.101 107.883 235.555 109.273 235.842C112.97 236.608 116.969 236.17 120.883 236.87C121.271 236.901 151.447 238.02 166.044 237.46C167.575 225.701 169.192 214.123 170.798 203.105C171.353 199.314 171.907 195.584 172.451 191.94C173.186 187.061 173.906 182.328 174.616 177.782L174.712 177.822L176.132 178.381C178.701 179.389 181.315 180.271 183.96 181.053C190.039 163.784 194.759 145.341 192.538 127.07V127.08Z" fill="#D9D9D9"/>
<path d="M245.44 159.359C244.247 158.966 243.043 158.562 241.834 158.139C239.185 172 232.773 185.08 223.313 195.62C223.591 195.71 223.857 195.801 224.14 195.887C224.729 196.068 225.333 196.25 225.948 196.426C226.144 196.481 226.346 196.537 226.542 196.592C226.97 196.708 227.398 196.829 227.837 196.94C228.078 197.001 228.325 197.061 228.567 197.122C228.809 197.182 229.045 197.248 229.292 197.303C229.464 197.343 229.64 197.384 229.816 197.424C230.078 197.485 230.345 197.545 230.607 197.606C231.035 197.701 231.468 197.792 231.906 197.883C232.078 197.918 232.244 197.953 232.415 197.989C237.356 190.992 242.066 183.699 244.091 175.281C245.35 170.055 245.622 164.717 245.435 159.369L245.44 159.359Z" fill="#D9D9D9"/>
<path d="M257.06 177.509C257.735 173.422 258.118 169.258 258.491 165.125C257.257 164.051 255.852 163.114 254.27 162.353C254.169 167.842 253.464 173.285 251.61 178.669C249.087 185.982 245.194 192.686 241.038 199.188C243.607 199.329 245.939 199.203 248.049 198.861C250.462 196.764 252.039 193.588 253.288 190.761C255.151 186.552 256.31 182.046 257.06 177.514V177.509Z" fill="#D9D9D9"/>
<path d="M259.856 166.446C259.428 170.811 259.035 175.196 258.224 179.505C257.348 184.158 255.983 188.729 253.897 192.983C252.986 194.848 251.933 196.713 250.608 198.306C251.198 198.145 251.772 197.968 252.326 197.772C256.209 196.396 259.191 194.087 261.287 191.275C261.856 190.509 262.354 189.707 262.793 188.875C265.195 184.319 265.633 178.895 264.163 173.996C263.332 171.229 261.896 168.623 259.851 166.441L259.856 166.446Z" fill="#D9D9D9"/>
<path d="M252.874 163.321C252.889 162.801 252.889 162.277 252.894 161.758C252.35 161.546 251.796 161.345 251.217 161.173C249.832 160.76 248.406 160.316 246.951 159.853C247.107 165.17 246.8 170.473 245.545 175.68C243.531 184.047 238.927 191.325 234.036 198.291C234.087 198.301 234.132 198.306 234.182 198.316C234.419 198.357 234.651 198.402 234.892 198.442C235.633 198.568 236.383 198.689 237.159 198.8C237.904 198.906 238.625 198.992 239.335 199.062C243.581 192.479 247.6 185.695 250.159 178.27C251.826 173.432 252.738 168.437 252.874 163.321Z" fill="#D9D9D9"/>
<path d="M186.987 164.016C189.193 157.932 191.188 151.647 191.152 145.135C191.127 139.998 189.485 135.301 187.556 130.664C187.047 129.444 186.519 128.229 185.995 127.009C185.975 126.959 185.954 126.914 185.934 126.863L184.348 128.315C184.705 130.694 185.013 133.048 185.279 135.341C186.66 147.176 186.957 157.635 186.982 164.016H186.987Z" fill="#D9D9D9"/>
<path d="M227.105 152.095C224.703 165.957 218.694 179.107 209.688 189.924C209.527 189.843 209.361 189.763 209.194 189.682C209.29 189.727 209.386 189.778 209.476 189.823C209.643 189.904 209.814 189.989 209.98 190.07C210.252 190.201 210.524 190.337 210.801 190.473C210.972 190.554 211.139 190.64 211.31 190.72C211.607 190.861 211.904 191.008 212.206 191.149C212.357 191.219 212.509 191.29 212.66 191.365C212.7 191.386 212.74 191.406 212.781 191.421C213.194 191.617 213.617 191.809 214.045 192.006C214.508 192.217 214.982 192.429 215.465 192.636C215.521 192.661 215.576 192.686 215.631 192.706C224.386 181.592 229.795 168.043 231.261 154.021C229.841 153.396 228.445 152.756 227.1 152.09L227.105 152.095Z" fill="#D9D9D9"/>
<path d="M232.717 154.646C231.166 168.643 225.741 182.157 217.068 193.311C216.685 193.15 216.307 192.994 215.935 192.832C216.267 192.978 216.604 193.12 216.947 193.261C217.133 193.336 217.325 193.417 217.516 193.493C217.708 193.568 217.894 193.649 218.085 193.729C218.216 193.78 218.352 193.83 218.483 193.886C218.685 193.966 218.891 194.047 219.098 194.128C219.239 194.183 219.375 194.239 219.521 194.294C219.712 194.365 219.909 194.435 220.105 194.511C220.312 194.586 220.513 194.662 220.725 194.738C221.067 194.864 221.415 194.984 221.767 195.105C231.342 184.631 237.8 171.531 240.409 157.64C237.825 156.713 235.236 155.715 232.717 154.656V154.646Z" fill="#D9D9D9"/>
<path d="M193.092 183.341C193.324 183.392 193.556 183.437 193.788 183.487C193.556 183.442 193.324 183.392 193.092 183.341Z" fill="#D9D9D9"/>
<path d="M197.302 184.384C197.242 184.364 197.186 184.349 197.126 184.334C197.604 184.485 198.083 184.642 198.561 184.813C198.521 184.798 198.486 184.783 198.446 184.768C198.068 184.631 197.685 184.505 197.302 184.384Z" fill="#D9D9D9"/>
<path d="M219.143 147.494C216.624 161.501 211.335 174.954 203.584 186.92C203.568 186.91 203.548 186.905 203.533 186.895C203.79 187.016 204.047 187.137 204.309 187.263C204.43 187.323 204.551 187.378 204.672 187.439C205.059 187.625 205.447 187.817 205.84 188.009C206.203 188.19 206.57 188.371 206.938 188.553C206.989 188.578 207.039 188.603 207.089 188.629C207.432 188.8 207.779 188.971 208.132 189.148C208.192 189.178 208.253 189.208 208.313 189.238C217.405 178.442 223.379 165.236 225.685 151.38C223.303 150.15 221.092 148.849 219.148 147.494H219.143Z" fill="#D9D9D9"/>
<path d="M199.695 131.576C199.378 131.359 199.06 131.147 198.748 130.941C198.008 130.452 197.292 129.983 196.597 129.545C196.23 129.308 195.867 129.081 195.514 128.864C195.041 128.572 194.588 128.295 194.154 128.033C196.063 146.138 191.425 164.364 185.4 181.481C186.035 181.658 186.67 181.834 187.309 182C188.825 182.394 190.352 182.756 191.883 183.094C192.286 183.18 192.689 183.265 193.092 183.346C198.637 167.267 201.775 150.427 202.4 133.451C201.488 132.801 200.582 132.176 199.695 131.576Z" fill="#D9D9D9"/>
<path d="M211.29 140.467C211.29 140.467 211.26 140.437 211.245 140.427C210.661 139.903 210.056 139.379 209.437 138.859C208.198 137.816 206.903 136.788 205.589 135.79C205.019 135.356 204.45 134.933 203.876 134.514C203.166 151.239 200.018 167.832 194.568 183.659C194.437 183.628 194.311 183.598 194.185 183.573C194.054 183.548 193.923 183.518 193.787 183.492C193.918 183.518 194.049 183.548 194.185 183.573C194.291 183.593 194.397 183.618 194.497 183.644C194.653 183.679 194.81 183.709 194.961 183.744C195.208 183.8 195.454 183.86 195.701 183.926C195.847 183.966 195.998 184.001 196.144 184.042C196.406 184.112 196.668 184.193 196.93 184.269C196.996 184.289 197.061 184.309 197.127 184.329C204.339 170.644 209.145 155.77 211.29 140.467Z" fill="#D9D9D9"/>
<path d="M217.797 146.516C216.543 145.558 215.42 144.575 214.473 143.562C213.894 142.947 213.269 142.322 212.614 141.697C210.388 156.728 205.638 171.33 198.572 184.808C198.572 184.808 198.567 184.808 198.562 184.808C198.904 184.929 199.247 185.055 199.589 185.191C199.715 185.241 199.841 185.292 199.967 185.342C200.224 185.443 200.481 185.549 200.737 185.655C200.884 185.715 201.03 185.781 201.181 185.841C201.417 185.942 201.654 186.048 201.896 186.154C202.002 186.199 202.102 186.244 202.208 186.295C210.041 174.238 215.36 160.664 217.802 146.521L217.797 146.516Z" fill="#D9D9D9"/>
<path d="M203.07 186.683C202.829 186.572 202.587 186.461 202.345 186.35C202.3 186.33 202.249 186.31 202.204 186.285C202.642 186.481 203.086 186.683 203.529 186.895C203.519 186.895 203.514 186.885 203.504 186.885C203.358 186.814 203.211 186.748 203.065 186.683H203.07Z" fill="#D9D9D9"/>
<path d="M349.034 69.3115C351.578 70.7077 354.67 72.0384 358.418 73.2531C366.23 75.7885 372.702 75.7028 377.946 74.105C385.959 71.6604 391.102 65.6673 393.751 60.0069C396.789 53.5199 391.067 49.4623 391.067 49.4623C391.067 49.4875 389.863 57.9353 371.473 61.4888C353.058 65.0423 339.635 47.6679 339.635 47.6679C339.635 47.6679 339.625 47.6881 339.605 47.7183C339.091 48.5803 332.533 60.2841 349.029 69.3166L349.034 69.3115Z" fill="#345F96"/>
<path d="M315.76 120.547C321.296 120.331 325.648 119.65 328.186 119.151C329.793 118.839 330.68 118.597 330.68 118.597C330.68 118.597 341.645 128.698 352.217 133.441C357.844 135.961 363.359 136.969 367.051 134.121C373.871 128.869 381.668 128.285 386.473 133.3C387.622 134.494 388.594 136.011 389.349 137.861C391.122 138.043 392.81 138.789 394.119 140.009C394.653 139.061 395.121 138.098 395.55 137.125C418.407 142.625 442.322 143.532 465.663 139.802C465.668 138.607 465.668 137.428 465.653 136.274C442.755 140.054 419.268 139.177 396.819 133.824C397.826 130.769 398.411 127.72 398.733 124.902C398.874 123.662 398.97 122.468 399.025 121.344C399.045 120.875 399.06 120.416 399.07 119.973C403.76 120.401 411.527 119.958 423.182 116.051C425.851 116.379 428.536 116.626 431.226 116.787C441.441 117.392 454.325 117.906 463.603 112.846C463.568 112.634 463.527 112.417 463.492 112.206C463.306 111.157 463.114 110.134 462.908 109.131C457.564 112.422 450.698 113.506 443.843 113.692C439.109 114.605 433.946 114.62 428.944 113.95C437.965 110.411 448.946 104.968 462.172 96.7365C463.119 96.1468 464.076 95.5469 465.048 94.927C465.744 94.4834 466.449 94.0298 467.154 93.5711C467.335 93.4552 467.512 93.3392 467.693 93.2233C467.693 93.2233 467.577 92.5731 467.325 91.6053C467.436 91.7414 467.501 91.8926 467.527 92.0539C467.582 92.4471 467.602 91.1567 466.645 89.3926C465.995 87.578 465.013 85.5518 463.633 84.3522C463.175 83.954 462.56 83.5961 461.82 83.2785C455.453 80.5567 439.245 80.713 422.708 81.7967C415.979 80.0174 411.532 77.2401 401.77 77.5627C401.433 77.5728 401.1 77.5929 400.768 77.6131C390.024 78.1877 383.134 81.9932 379.794 84.4076C379.422 79.8511 377.548 78.2885 374.571 77.7694C373.856 77.6433 373.08 77.5829 372.244 77.5526C368.718 77.4216 364.17 77.8702 359.017 76.8772C358.005 76.6806 357.093 76.6 356.267 76.6C355.129 76.6 354.151 76.7613 353.315 77.0536C350.772 77.9458 349.538 79.9972 348.948 82.0336C346.556 81.3329 340.275 80.1283 328.866 81.9479C324.414 82.6586 319.19 83.8229 313.101 85.6627C303.783 88.4803 288.803 79.468 273.672 76.1816C262.173 73.6866 250.583 74.4981 241.32 86.328C242.534 87.9964 242.957 90.0075 242.7 92.4824C242.665 92.8201 242.6 93.1427 242.519 93.4652C250.029 98.3192 262.722 106.081 276.906 112.881C291.276 119.766 305.541 120.956 315.77 120.558L315.76 120.547Z" fill="#D9D9D9"/>
<path d="M199.544 63.8931C199.544 63.8931 199.665 63.9485 199.877 64.0393C202.385 65.1129 219.198 71.7864 238.197 66.7359C238.197 66.7359 246.453 65.2842 241.859 53.2779C241.859 53.2779 242.187 52.416 242.574 51.0148C242.766 50.3142 242.977 49.4775 243.169 48.55C244.317 43.4491 243.431 37.7282 240.489 33.4136C240.066 32.7987 239.608 32.209 239.099 31.6545C238.59 31.1001 238.046 30.5809 237.457 30.1071C237.391 30.0567 237.321 30.0063 237.255 29.9559C240.247 28.4841 242.192 25.2985 241.904 21.7702C241.532 17.1633 237.492 13.7307 232.893 14.1088C228.29 14.4818 224.86 18.5242 225.237 23.1261C225.358 24.5878 225.847 25.9286 226.602 27.0677C226.089 27.0778 225.57 27.103 225.056 27.1484C219.682 27.3701 215.078 29.8198 210.877 32.8743C208.721 34.4419 206.344 35.6969 203.79 36.448C193.525 39.4773 196.648 50.1277 196.648 50.1277C196.648 50.1277 192.049 61.5896 199.544 63.8931Z" fill="#D9D9D9"/>
<path d="M308.869 48.1367C309.927 47.1034 310.768 45.8937 311.146 44.3917C311.861 41.5589 310.255 39.1799 308.048 37.5568C305.711 35.8431 302.437 34.6888 299.627 35.8985C297.788 36.6899 296.469 38.2827 294.393 36.8814C292.651 35.707 292.268 33.3985 291.925 31.4831C291.84 31.0093 291.114 31.2109 291.2 31.6847C291.633 34.084 292.273 36.8764 294.761 37.945C295.008 38.0508 295.245 38.1214 295.476 38.1667C293.472 39.1244 291.326 39.7393 289.105 39.9359C289.064 39.9359 289.029 39.941 288.989 39.946C286.138 40.2283 283.635 41.7404 282.003 43.933C279.142 45.8534 277.001 48.7365 276.588 52.2497C276.195 55.6016 278.014 58.0462 281.162 59.0543C283.06 59.6642 285.08 60.022 287.13 60.1984C285.75 61.5896 284.31 63.1017 282.799 64.7449C282.391 64.9667 281.972 65.1784 281.544 65.3699C279.419 66.3226 277.233 66.9879 275.838 68.994C274.437 71.0051 273.808 73.4296 273.813 75.8691C273.762 75.9699 273.722 76.0707 273.677 76.1716C288.813 79.4579 303.787 88.4702 313.105 85.6526C319.195 83.8128 324.418 82.6485 328.871 81.9378C328.74 79.9872 328.715 77.8651 328.841 75.5365C329.939 55.0572 316.576 48.7163 308.874 48.1367H308.869ZM283.479 58.8375C281.811 58.5149 279.943 58.1016 278.694 56.8617C277.283 55.4655 277.062 53.4291 277.454 51.5692C277.948 49.2254 279.232 47.2294 280.955 45.682C280.456 46.7556 280.144 47.93 280.058 49.1649C279.741 53.8929 282.713 57.9756 286.914 59.3365C285.76 59.2206 284.617 59.0593 283.473 58.8375H283.479ZM276.709 71.5898C275.893 72.5273 275.198 73.4749 274.614 74.4225C274.85 71.7813 275.883 69.2964 278.054 67.8296C279.117 67.1139 280.32 66.6451 281.514 66.1512C279.988 67.8397 278.391 69.6492 276.709 71.5898ZM307.771 48.0964C307.696 48.0409 307.716 48.051 307.64 47.9956C308.351 46.7304 308.718 45.2536 308.618 43.6759C308.371 39.6789 305.041 36.4681 301.037 36.3572C300.967 36.3572 300.901 36.3572 300.836 36.3572C301.264 36.2211 301.702 36.1405 302.17 36.1506C305.313 36.206 309.64 38.5296 310.431 41.8059C311.061 44.4219 309.645 46.4734 307.771 48.0913V48.0964Z" fill="#333333"/>
<path d="M450.149 17.0524C449.958 16.6038 449.635 16.1148 449.116 15.5957C447.993 14.1844 446.679 13.0402 445.213 12.148C445.923 10.4292 447.016 8.83143 448.829 8.18122C449.283 8.01992 449.086 7.2941 448.628 7.4554C446.865 8.08545 445.696 9.45644 444.89 11.0543C444.805 10.2276 444.911 9.38084 445.208 8.58949C445.379 8.13585 444.654 7.93928 444.482 8.38787C444.095 9.4262 443.994 10.5149 444.195 11.5785C440.836 9.85464 436.836 9.28003 432.726 9.60766C432.334 9.53709 431.931 9.46149 431.518 9.39092C422.35 7.79815 417.5 5.51987 414.951 3.70028C415.722 6.35658 417.082 8.49372 417.082 8.49372C414.961 6.56324 412.886 2.20831 412.352 1.03893C412.251 0.847396 412.216 0.741547 412.216 0.741547C412.216 0.741547 411.38 1.78491 410.509 3.38273C410.443 3.38273 410.378 3.39281 410.307 3.44322C407.678 5.31321 405.658 7.70238 406.56 11.1198C407.043 12.9495 408.141 14.4818 409.552 15.6713L406.011 14.1894C406.011 14.1894 408.061 20.1875 412.775 25.1876C412.453 26.2965 412.211 27.36 412.035 28.3228C410.448 34.0184 409.879 38.9681 410.146 43.1971C407.864 50.3746 406.202 58.9282 407.884 66.005C409.965 64.6894 412.594 63.5503 415.898 62.6229L416.039 57.0885C418.044 58.9585 420.477 60.2942 423.212 61.1057C427.599 60.4555 432.787 60.0623 438.922 59.9867C440.362 59.2307 441.657 58.2982 442.82 57.2498C450.834 50.0218 452.592 37.199 452.592 37.199C452.733 35.8229 452.808 34.5275 452.839 33.2876C453.609 26.105 452.476 20.8075 450.144 17.0524H450.149ZM407.416 11.3416C406.479 8.52397 407.804 6.42211 409.829 4.74869C408.378 7.94936 407.426 12.4353 410.967 15.7973C409.355 14.7187 408.036 13.2166 407.411 11.3416H407.416Z" fill="#333333"/>
<path d="M156.987 81.4489C162.387 81.1364 167.212 81.0557 171.534 81.1464C171.096 79.2664 170.743 77.4821 170.441 75.7834C170.481 75.5516 170.516 75.3197 170.567 75.0879C170.622 74.8358 170.446 74.6695 170.249 74.6292C170.179 74.2058 170.113 73.7874 170.048 73.3741C171.201 75.9598 172.4 78.5305 173.362 81.1968C173.634 81.2069 173.901 81.217 174.168 81.2271C172.884 77.603 171.116 74.1655 169.655 70.6069C168.406 61.0402 168.497 54.4876 164.437 48.6609C158.594 40.2736 146.687 42.3503 146.687 42.3503C146.687 42.3503 136.951 40.8634 129.823 54.407C128.62 55.5159 127.421 56.6399 126.413 57.8849C125.144 59.4524 125.038 61.3023 124.978 63.2428C124.978 63.2428 124.978 63.2479 124.978 63.2529C124.923 65.0876 124.907 66.9173 124.918 68.752C124.515 70.6422 124.152 72.6684 123.835 74.8409C123.598 76.4891 123.331 78.0667 123.049 79.594C131.637 80.9247 142.577 82.2805 156.982 81.4539L156.987 81.4489ZM126.005 64.3215C125.9 64.7046 125.794 65.0977 125.693 65.4909C125.698 65.128 125.693 64.7651 125.703 64.3971C125.703 64.2661 125.703 64.135 125.708 63.9989C125.723 62.9102 125.708 61.7912 125.91 60.7277C126.172 59.3113 126.978 58.3032 127.98 57.3103C128.252 57.0431 128.524 56.781 128.796 56.5189C127.783 58.7518 126.842 61.3325 126.011 64.3165L126.005 64.3215Z" fill="#333333"/>
<path d="M188.593 131.158C188.377 130.633 188.15 130.114 187.929 129.595C187.46 128.506 186.992 127.418 186.523 126.329C186.14 125.442 185.773 124.545 185.415 123.647C185.123 123.536 184.826 123.431 184.529 123.33C184.972 124.514 185.44 125.694 185.939 126.863C185.959 126.914 185.979 126.959 185.999 127.009C186.523 128.229 187.052 129.444 187.561 130.664C189.49 135.301 191.132 139.998 191.157 145.135C191.187 151.647 189.198 157.932 186.992 164.016C186.972 157.635 186.669 147.181 185.289 135.341C185.022 133.043 184.71 130.694 184.357 128.315C184.126 126.752 183.869 125.175 183.597 123.587C183.562 123.395 183.531 123.199 183.496 123.007C180.645 122.17 177.668 121.797 174.666 121.924C174.631 121.924 174.591 121.924 174.556 121.924C162.18 122.453 143.846 124.923 128.77 120.623C128.569 120.568 128.367 120.507 128.166 120.447C126.73 120.018 125.315 119.544 123.935 119.025C119.432 117.332 115.231 115.195 111.398 112.916C107.182 122.191 102.946 132.1 100.186 147.257C100.005 148.25 99.8335 149.273 99.6623 150.311C99.6169 150.583 99.5716 150.856 99.5313 151.138C99.4507 150.588 99.3953 150.034 99.3601 149.469C99.2493 147.841 99.2845 146.188 99.3198 144.626C99.3299 144.217 99.3399 143.809 99.345 143.416C99.4507 137.362 100.403 131.667 102.836 126.097C104.941 121.288 107.711 116.813 110.421 112.332C110.204 112.201 109.993 112.069 109.781 111.933C109.736 112.009 109.691 112.085 109.645 112.16C106.784 116.888 103.868 121.621 101.748 126.742C99.6522 131.808 98.8111 136.959 98.6197 142.367C98.6045 142.811 98.5894 143.25 98.5844 143.698C98.5693 144.792 98.534 145.946 98.5391 147.116C98.5491 149.187 98.67 151.304 99.209 153.255C98.8513 155.77 98.529 158.416 98.252 161.214C98.252 161.214 100.025 162.524 102.961 164.329C102.961 164.329 103.309 162.756 103.934 160.221C104.105 159.525 104.296 158.764 104.508 157.937C106.86 148.728 111.6 132.095 116.692 125.301C116.692 125.301 108.114 144.001 107.409 163.391C107.379 164.218 107.364 165.044 107.359 165.871C107.963 166.219 108.588 166.572 109.232 166.929C110.456 167.61 111.751 168.306 113.096 168.986C121.165 173.064 131.198 176.627 140.38 173.497C143.196 172.534 146.319 171.809 149.573 171.264V165.836L151.341 170.987C155.214 170.422 159.228 170.1 163.102 169.934C163.072 159.404 163.132 149.984 163.132 149.984L165.479 169.853C167.58 169.797 169.62 169.782 171.549 169.797C172.788 169.808 173.976 169.833 175.115 169.863C176.958 169.913 178.656 169.984 180.157 170.065L179.295 147.211L179.054 140.755C179.054 140.755 179.316 142.373 179.698 145.009C180.529 150.694 181.935 161.108 182.554 170.206C185.269 170.382 186.901 170.554 186.901 170.554C186.901 170.554 186.967 168.976 186.982 166.204C189.067 160.558 191.092 154.807 191.716 148.789C192.361 142.579 190.961 136.863 188.593 131.163V131.158Z" fill="#333333"/>
<path d="M139.141 384.353C132.775 384.278 126.514 384.061 120.691 383.698L123.341 398.658V410.433H151.447L138.643 398.658L139.147 384.348L139.141 384.353Z" fill="#333333"/>
<path d="M32.5816 157.635C30.0934 157.852 26.9655 158.436 26.2201 159.974C25.1875 162.106 23.208 169.233 29.8718 171.98C31.0001 172.444 32.3751 172.786 34.0474 172.953C31.4987 168.29 31.0253 162.675 32.5816 157.635Z" fill="#333333"/>
<path d="M203.141 72.6835C204.264 74.8963 205.397 76.7562 206.546 78.2885C209.17 78.1423 212.393 78.223 216.373 78.6615C220.231 79.0899 223.606 79.5486 226.542 80.0678C227.877 78.9438 229.166 77.6786 230.4 76.353C233.427 73.0868 236.097 69.4627 238.202 66.7358C219.198 71.7864 202.385 65.1128 199.882 64.0392C200.441 66.2973 200.919 67.7742 200.919 67.7742C201.65 69.5837 202.395 71.2117 203.141 72.6835Z" fill="#333333"/>
<path d="M460.415 298.777C460.395 297.784 460.375 296.796 460.354 295.818C462.43 282.506 463.941 253.857 463.608 226.316C456.728 229.703 439.477 230.701 422.165 230.121C424.915 264.956 423.066 293.923 426.451 315.592L432.113 398.351L418.055 410.443L432.919 410.09H453.585C464.968 334.146 460.415 298.777 460.415 298.777Z" fill="#333333"/>
<path d="M396.315 228.967C397.101 233.498 397.116 237.606 395.016 238.761C394.799 238.882 394.462 239.008 394.034 239.139C391.913 284.513 386.896 353.531 384.262 388.497V388.512C383.3 401.254 382.66 409.465 382.59 410.352L396.189 410.085L404.611 321.262L417.551 229.925C410.59 229.582 403.775 228.992 397.776 228.206C397.313 228.498 396.824 228.75 396.315 228.962V228.967Z" fill="#333333"/>
<path d="M123.054 79.589C123.336 78.0667 123.603 76.4841 123.84 74.8358C124.157 72.6634 124.52 70.6422 124.923 68.747C124.913 66.9123 124.928 65.0826 124.983 63.2479C119.891 58.147 108.17 49.0994 95.7897 58.2579C94.2282 53.9786 90.8435 48.5097 83.545 45.7677C83.5148 45.7223 83.4795 45.677 83.4241 45.6417C79.314 43.0761 74.4837 42.2192 69.6936 42.2596C65.5684 42.2948 61.3425 42.9551 57.6152 44.7949C54.0742 46.5389 51.2536 49.4522 50.221 53.3283C49.5612 55.8032 49.6015 58.3284 49.9037 60.8487C49.5511 67.5978 51.1226 75.1282 49.395 80.9196C48.9568 81.5446 48.4531 82.1344 47.8486 82.6687C47.7479 82.7594 47.7227 82.8602 47.7328 82.961C41.1748 89.1406 15.26 115.734 44.1113 125.331C44.1113 125.331 35.8609 132.266 41.9958 137.927C43.5572 139.368 46.0555 140.724 49.8584 141.863C51.0571 142.221 52.2559 142.413 53.4547 142.448C55.0061 142.499 56.5524 142.282 58.0735 141.828C58.6427 141.662 59.2068 141.46 59.7709 141.228C61.5288 140.503 63.2565 139.464 64.9287 138.159C63.463 151.037 66.7118 164.364 73.9195 175.166C74.67 176.29 75.4659 177.378 76.297 178.437C76.8057 178.25 77.3043 178.064 77.7929 177.872C68.8222 166.582 64.6265 151.672 66.5405 137.352C66.3844 137.423 66.2282 137.493 66.067 137.564C65.8505 137.66 65.6339 137.755 65.4173 137.851C65.3468 137.882 65.2712 137.917 65.2007 137.947C65.5382 137.675 65.8706 137.393 66.203 137.105C69.1295 134.545 71.8746 131.163 74.3326 127.181C75.4155 126.404 76.4833 125.608 77.4957 124.756C79.0068 123.481 80.0948 122.004 80.9057 120.386C82.034 118.133 82.6132 115.603 83.0162 112.962C83.409 110.371 83.5702 107.755 83.3033 105.189C83.9883 102.427 84.5524 99.5944 84.9755 96.7214H87.9221L90.9694 89.2212L90.1635 88.6718C90.4506 88.818 90.7427 88.9591 91.0349 89.0952C98.2628 74.3872 106.05 76.9377 123.069 79.5789L123.054 79.589ZM55.1068 47.2496C58.416 44.6185 62.778 43.4894 66.9233 43.1416C71.2701 42.7787 75.7882 43.0963 79.848 44.6991C76.6445 44.0237 72.8568 43.8171 68.3639 44.2757C56.4819 45.5006 52.0696 50.1882 50.5585 56.1409C50.8859 52.7134 52.2055 49.5531 55.1068 47.2496ZM82.1599 113.556C81.8023 115.668 81.359 117.821 80.4625 119.776C80.3819 119.953 80.2912 120.119 80.2005 120.29C79.1982 122.206 77.7073 123.683 75.9897 125.003C75.7681 125.175 75.5465 125.341 75.3248 125.512C76.3322 123.763 77.2791 121.908 78.1707 119.973C79.9437 116.112 81.4698 111.923 82.6837 107.523C82.7039 109.539 82.4974 111.57 82.1548 113.556H82.1599ZM85.9275 68.6109C86.9147 59.8557 90.1685 59.3617 92.9136 60.7226C89.8865 63.5957 87.5947 66.2167 85.9275 68.6109Z" fill="#333333"/>
<path d="M125.713 64.004C125.713 64.135 125.713 64.2711 125.708 64.4022C125.698 64.7651 125.703 65.128 125.698 65.4959C125.799 65.0977 125.905 64.7096 126.011 64.3266C125.915 64.2257 125.814 64.1199 125.713 64.009V64.004Z" fill="#333333"/>
<path d="M318.531 402.66C318.964 395.483 319.664 383.789 320.49 369.514C316.793 326.661 315.499 284.291 315.151 250.918H298.146L306.049 410.438H324.812C324.635 409.036 324.459 407.63 324.288 406.224L318.531 402.66Z" fill="#333333"/>
<path d="M285.508 396.864L293.19 250.918H271.214C269.567 250.812 268.005 250.59 266.524 250.253C269.018 284.749 270.08 317.129 267.144 332.709C268.307 358.173 270.045 384.721 272.619 410.438H301.319L285.977 401.823L285.503 396.864H285.508Z" fill="#333333"/>
<path d="M268.932 176.148C268.342 174.929 266.252 174.309 264.167 173.996C265.638 178.9 265.199 184.324 262.797 188.875C272.382 187.005 270.07 178.507 268.932 176.148Z" fill="#333333"/>
<path d="M253.292 345.477C246.467 346.863 237.2 347.669 227.101 347.931C228.808 365.578 230.914 383.441 233.513 400.326V410.438H257.851L253.307 398.658L253.287 345.471L253.292 345.477Z" fill="#333333"/>
<path d="M197.384 379.187L199.106 367.135L201.907 347.538C191.737 346.968 182.021 345.91 174.274 344.403C173.942 355.734 173.897 368.657 174.3 383.27C170.028 383.622 165.42 383.89 160.645 384.076L161.934 398.658L157.355 410.432H173.992H219.929L194.88 396.662L197.379 379.187H197.384Z" fill="#333333"/>
<path d="M39.1144 172.993C36.8881 165.1 37.5933 156.753 38.515 148.683C37.9156 149.182 37.3565 149.711 36.8377 150.266C35.9764 158.27 35.5029 166.511 37.9206 174.258C38.4747 176.038 39.1849 177.782 40.0361 179.45C40.6809 179.873 41.3608 180.266 42.0761 180.619C42.1164 180.639 42.1516 180.655 42.1919 180.675C42.3128 180.735 42.4387 180.791 42.5647 180.851C41.0435 178.427 39.8901 175.75 39.1144 172.993Z" fill="#333333"/>
<path d="M107.409 163.391C106.366 161.617 105.399 159.797 104.508 157.937C104.296 158.764 104.105 159.525 103.934 160.221C105.102 162.509 106.387 164.737 107.797 166.884C108.265 166.884 108.744 166.899 109.232 166.929C108.588 166.572 107.963 166.219 107.359 165.871C107.359 165.044 107.379 164.218 107.409 163.391Z" fill="#333333"/>
<path d="M99.3501 149.469C99.4508 149.752 99.5515 150.029 99.6573 150.311C99.8235 149.268 99.9998 148.25 100.181 147.257C99.884 146.385 99.5918 145.508 99.3148 144.626C99.2745 146.188 99.2392 147.841 99.3551 149.469H99.3501Z" fill="#333333"/>
<path d="M94.0118 124.328C93.4577 121.934 92.8987 119.418 92.6921 116.908C92.2439 117.327 91.7855 117.755 91.3271 118.199C91.3574 118.456 91.3926 118.713 91.4279 118.97C92.0525 123.415 93.2563 127.816 94.3241 132.171C95.5531 137.196 96.8979 142.216 98.54 147.126C98.54 145.956 98.5651 144.807 98.5853 143.708C98.5903 143.265 98.6054 142.821 98.6206 142.378C98.3989 141.647 98.1874 140.911 97.9758 140.175C96.4899 134.938 95.2358 129.635 94.0118 124.328Z" fill="#333333"/>
<path d="M185.401 181.476C191.42 164.364 196.064 146.138 194.155 128.027C193.58 127.68 193.036 127.362 192.538 127.075C194.759 145.346 190.039 163.789 183.96 181.058C184.438 181.199 184.922 181.34 185.401 181.476Z" fill="#333333"/>
<path d="M208.309 189.238C208.419 189.294 208.535 189.349 208.646 189.405C208.832 189.495 209.014 189.586 209.195 189.677C209.356 189.758 209.522 189.838 209.689 189.919C218.695 179.102 224.704 165.952 227.106 152.09C226.628 151.854 226.149 151.612 225.681 151.37C223.374 165.226 217.4 178.437 208.309 189.228V189.238Z" fill="#333333"/>
<path d="M251.605 178.669C253.464 173.28 254.164 167.842 254.264 162.353C253.821 162.141 253.358 161.944 252.889 161.758C252.889 162.277 252.889 162.801 252.869 163.321C252.728 168.437 251.822 173.432 250.154 178.27C247.596 185.69 243.576 192.479 239.33 199.062C239.909 199.118 240.473 199.158 241.033 199.188C245.193 192.686 249.087 185.987 251.605 178.669Z" fill="#333333"/>
<path d="M371.478 61.4837C389.868 57.9353 391.067 49.4875 391.072 49.4623C391.072 48.9583 391.062 48.5046 391.031 48.1165C391.001 47.5722 390.961 47.0328 390.911 46.4985C390.84 45.8786 390.759 45.2687 390.679 44.6689C390.608 44.1648 390.558 43.6608 390.548 43.1567C390.533 42.6477 390.558 42.1386 390.633 41.6295C390.669 41.3976 390.714 41.1658 390.77 40.9339C399.932 37.95 402.284 26.9114 398.219 22.2138C396.92 20.7168 395.318 19.6936 393.666 19.003C394.154 7.68726 383.839 -0.740334 376.288 0.832279C368.386 2.47546 363.807 10.2377 362.286 13.2922C355.35 6.7699 345.402 11.2256 344.319 16.8155C344.143 17.7328 344.113 18.6351 344.188 19.5071C334.583 18.2722 329.194 27.9347 331.702 33.0961C333.077 35.9288 335.691 37.6274 337.983 38.6153C338.718 41.5993 339.147 44.679 339.615 47.7234C339.635 47.6881 339.645 47.673 339.645 47.673C339.645 47.673 353.063 65.0473 371.483 61.4938L371.478 61.4837Z" fill="#333333"/>
<path d="M358.418 73.2531C354.665 72.0384 351.578 70.7027 349.034 69.3115C350.555 71.363 352.061 73.0566 353.552 74.4276C354.464 75.2643 355.366 75.98 356.262 76.5899C357.093 76.5899 358 76.6756 359.012 76.8671C364.165 77.8651 368.713 77.4115 372.239 77.5425C372.949 77.2099 373.654 76.8419 374.355 76.4387C375.563 75.7431 376.762 74.9518 377.951 74.0999C372.708 75.7028 366.235 75.7885 358.423 73.2481L358.418 73.2531Z" fill="#333333"/>
</g>
<defs>
<clipPath id="clip0_255_72">
<rect width="511.238" height="423.255" fill="white" transform="translate(0.869141 0.635742)"/>
</clipPath>
</defs>
</svg>
