<svg width="69" height="70" viewBox="0 0 69 70" fill="none" xmlns="http://www.w3.org/2000/svg">
<path d="M34.5255 0.883102C15.8639 0.883102 0.688477 16.0585 0.688477 34.7201C0.688477 53.3818 15.8639 68.5571 34.5255 68.5571C53.1871 68.5571 68.3625 53.3818 68.3625 34.7201C68.3625 16.0585 53.1871 0.883102 34.5255 0.883102ZM34.5255 64.4557C18.1197 64.4557 4.78993 51.126 4.78993 34.7201C4.78993 18.3143 18.1197 4.98456 34.5255 4.98456C50.9313 4.98456 64.2611 18.3143 64.2611 34.7201C64.2611 51.126 50.9313 64.4557 34.5255 64.4557Z" fill="#9CA3AF" stroke="white"/>
<path d="M50.9317 32.6694H36.5766V18.3143C36.5766 17.1864 35.6538 16.2635 34.5259 16.2635C33.398 16.2635 32.4752 17.1864 32.4752 18.3143V32.6694H18.1201C16.9922 32.6694 16.0693 33.5922 16.0693 34.7201C16.0693 35.848 16.9922 36.7708 18.1201 36.7708H32.4752V51.1259C32.4752 52.2538 33.398 53.1767 34.5259 53.1767C35.6538 53.1767 36.5766 52.2538 36.5766 51.1259V36.7708H50.9317C52.0596 36.7708 52.9824 35.848 52.9824 34.7201C52.9824 33.5922 52.0596 32.6694 50.9317 32.6694Z" fill="#9CA3AF" stroke="white"/>
</svg>
